<svg xmlns="http://www.w3.org/2000/svg" xmlns:xlink="http://www.w3.org/1999/xlink" width="500" zoomAndPan="magnify" viewBox="0 0 375 374.999991" height="500" preserveAspectRatio="xMidYMid meet" version="1.0"><defs><clipPath id="1158abc410"><path d="M 22.714844 5.21875 L 270 5.21875 L 270 248 L 22.714844 248 Z M 22.714844 5.21875 " clip-rule="nonzero"/></clipPath><clipPath id="6897f96cb8"><path d="M 110 128 L 351.964844 128 L 351.964844 374.96875 L 110 374.96875 Z M 110 128 " clip-rule="nonzero"/></clipPath><clipPath id="06dc0bbf82"><path d="M 89 92.324219 L 207 92.324219 L 207 185 L 89 185 Z M 89 92.324219 " clip-rule="nonzero"/></clipPath><clipPath id="18fb441050"><path d="M 112 144 L 165 144 L 165 187.628906 L 112 187.628906 Z M 112 144 " clip-rule="nonzero"/></clipPath></defs><rect x="-37.5" width="450" fill="#ffffff" y="-37.499999" height="449.999989" fill-opacity="1"/><rect x="-37.5" width="450" fill="#333333" y="-37.499999" height="449.999989" fill-opacity="1"/><g clip-path="url(#1158abc410)"><path fill="#ffffff" d="M 31.875 237.949219 L 218.6875 237.949219 L 218.832031 171.199219 C 218.832031 166.609375 221.5 162.335938 225.613281 160.34375 C 229.484375 158.425781 234.734375 158.886719 238.273438 161.601562 C 241.734375 164.226562 246.023438 165.699219 250.308594 165.699219 C 255.808594 165.699219 260.28125 161.210938 260.28125 155.699219 L 260.28125 144.425781 C 260.28125 138.898438 255.808594 134.410156 250.308594 134.410156 C 246.023438 134.410156 241.75 135.867188 238.257812 138.523438 C 234.722656 141.234375 229.628906 141.753906 225.585938 139.75 C 221.429688 137.714844 218.832031 133.558594 218.832031 128.910156 L 218.515625 57.066406 C 218.269531 56.996094 217.488281 56.429688 217.257812 56.316406 L 145.296875 55.96875 C 140.664062 55.96875 136.523438 53.371094 134.472656 49.214844 C 132.410156 45.074219 132.914062 40.066406 135.789062 36.457031 C 138.371094 33.066406 139.828125 28.792969 139.828125 24.492188 C 139.828125 19.007812 135.339844 14.519531 129.828125 14.519531 L 118.554688 14.519531 C 113.042969 14.519531 108.554688 19.007812 108.554688 24.492188 C 108.554688 28.824219 110.011719 33.078125 112.636719 36.5 C 115.421875 40.136719 115.914062 45.132812 113.894531 49.230469 C 111.84375 53.386719 107.6875 55.96875 103.039062 55.96875 L 32.265625 56.128906 L 31.875 126.5 C 37.285156 122.835938 43.753906 120.84375 50.304688 120.84375 C 63.003906 120.84375 73.324219 131.175781 73.324219 143.878906 L 73.324219 155.179688 C 73.324219 167.878906 63.003906 178.210938 50.304688 178.210938 C 43.753906 178.210938 37.285156 176.21875 31.875 172.554688 Z M 223.246094 247.097656 L 27.300781 247.097656 C 26.085938 247.097656 24.917969 246.621094 24.050781 245.769531 C 23.199219 244.902344 22.710938 243.75 22.722656 242.523438 L 22.796875 169.957031 C 23.34375 166.578125 25.019531 164.371094 27.386719 163.289062 C 30.054688 161.945312 33.476562 162.265625 35.929688 164.210938 C 40 167.328125 45.109375 169.0625 50.304688 169.0625 C 57.953125 169.0625 64.175781 162.839844 64.175781 155.179688 L 64.175781 143.878906 C 64.175781 136.214844 57.953125 129.992188 50.304688 129.992188 C 45.109375 129.992188 40 131.726562 35.902344 134.886719 C 33.417969 136.746094 30.113281 137.066406 27.355469 135.78125 C 24.988281 134.640625 23.316406 132.402344 22.855469 129.804688 C 22.8125 129.546875 22.722656 128.664062 22.722656 128.390625 L 22.722656 56.503906 C 22.722656 51.25 26.996094 46.976562 32.25 46.976562 L 103.039062 46.820312 C 104.167969 46.820312 105.175781 46.183594 105.683594 45.175781 C 106.15625 44.191406 106.042969 42.953125 105.363281 42.070312 C 101.523438 37.078125 99.402344 30.828125 99.402344 24.492188 C 99.402344 13.941406 107.992188 5.371094 118.554688 5.371094 L 129.828125 5.371094 C 140.390625 5.371094 148.980469 13.941406 148.980469 24.492188 C 148.980469 30.785156 146.855469 37.035156 143.019531 42.085938 C 142.3125 42.964844 142.210938 44.179688 142.6875 45.160156 C 143.191406 46.183594 144.1875 46.820312 145.328125 46.820312 L 217.214844 47.136719 C 218.671875 47.136719 220.085938 47.46875 221.402344 48.148438 C 224.851562 49.15625 227.636719 52.851562 227.664062 57.023438 L 227.996094 128.898438 C 227.996094 130.035156 228.617188 131.046875 229.628906 131.539062 C 230.578125 132 231.878906 131.855469 232.6875 131.25 C 237.796875 127.367188 244.046875 125.257812 250.308594 125.257812 C 260.859375 125.257812 269.429688 133.847656 269.429688 144.425781 L 269.429688 155.699219 C 269.429688 166.261719 260.859375 174.847656 250.308594 174.847656 C 244.03125 174.847656 237.78125 172.726562 232.699219 168.875 C 231.835938 168.195312 230.578125 168.09375 229.65625 168.570312 C 228.644531 169.0625 227.996094 170.101562 227.996094 171.210938 L 227.824219 242.535156 C 227.824219 245.0625 225.773438 247.097656 223.246094 247.097656 " fill-opacity="1" fill-rule="nonzero"/></g><g clip-path="url(#6897f96cb8)"><path fill="#ffffff" d="M 213.230469 374.839844 L 201.945312 374.839844 C 191.382812 374.839844 182.792969 366.265625 182.792969 355.714844 C 182.792969 349.4375 184.914062 343.1875 188.785156 338.109375 C 189.171875 337.601562 189.390625 336.96875 189.390625 336.347656 C 189.390625 335.886719 189.273438 335.4375 189.070312 335.035156 C 188.597656 334.039062 187.542969 333.390625 186.445312 333.390625 L 115.105469 333.230469 C 112.582031 333.230469 110.546875 331.179688 110.546875 328.65625 L 110.546875 259.078125 C 110.546875 256.550781 112.582031 254.5 115.121094 254.5 C 117.644531 254.5 119.695312 256.550781 119.695312 259.078125 L 119.695312 324.09375 L 186.460938 324.238281 C 191.050781 324.238281 195.308594 326.894531 197.296875 331.007812 C 198.09375 332.625 198.523438 334.484375 198.523438 336.347656 C 198.523438 339.003906 197.644531 341.601562 196.042969 343.679688 C 193.417969 347.144531 191.957031 351.429688 191.957031 355.714844 C 191.957031 361.214844 196.445312 365.6875 201.945312 365.6875 L 213.230469 365.6875 C 218.746094 365.6875 223.246094 361.214844 223.246094 355.714844 C 223.246094 351.429688 221.777344 347.15625 219.132812 343.664062 C 216.40625 340.101562 215.902344 334.992188 217.894531 330.980469 C 219.941406 326.820312 224.097656 324.238281 228.730469 324.238281 L 300.589844 323.921875 C 300.664062 323.660156 301.242188 322.867188 301.339844 322.636719 L 301.6875 250.707031 C 301.6875 246.074219 304.269531 241.929688 308.441406 239.882812 C 312.554688 237.832031 317.5625 238.335938 321.1875 241.179688 C 324.578125 243.765625 328.863281 245.222656 333.164062 245.222656 C 338.648438 245.222656 343.125 240.746094 343.125 235.234375 L 343.125 223.949219 C 343.125 218.449219 338.648438 213.960938 333.164062 213.960938 C 328.835938 213.960938 324.5625 215.417969 321.15625 218.03125 C 317.492188 220.832031 312.496094 221.308594 308.414062 219.300781 C 304.269531 217.25 301.6875 213.09375 301.6875 208.449219 L 301.527344 137.671875 L 276.820312 137.265625 C 274.296875 137.265625 272.246094 135.21875 272.246094 132.691406 C 272.246094 130.152344 274.296875 128.117188 276.820312 128.117188 L 301.140625 128.117188 C 306.40625 128.117188 310.679688 132.402344 310.679688 137.65625 L 310.839844 208.433594 C 310.839844 209.574219 311.472656 210.582031 312.484375 211.089844 C 313.449219 211.578125 314.707031 211.433594 315.585938 210.769531 C 320.566406 206.933594 326.816406 204.8125 333.164062 204.8125 C 343.699219 204.8125 352.273438 213.398438 352.273438 223.949219 L 352.273438 235.234375 C 352.273438 245.785156 343.699219 254.371094 333.164062 254.371094 C 326.859375 254.371094 320.609375 252.25 315.570312 248.410156 C 314.675781 247.703125 313.464844 247.617188 312.496094 248.09375 C 311.457031 248.597656 310.839844 249.59375 310.839844 250.71875 L 310.507812 322.609375 C 310.507812 324.078125 310.175781 325.507812 309.496094 326.820312 C 308.484375 330.257812 304.820312 333.042969 300.621094 333.070312 L 228.746094 333.390625 C 227.605469 333.390625 226.609375 334.023438 226.105469 335.035156 C 225.644531 335.972656 225.773438 337.285156 226.410156 338.109375 C 230.277344 343.203125 232.398438 349.453125 232.398438 355.714844 C 232.398438 366.265625 223.796875 374.839844 213.230469 374.839844 " fill-opacity="1" fill-rule="nonzero"/></g><path fill="#ffffff" d="M 104.398438 178.574219 C 103.847656 178.574219 103.300781 178.472656 102.75 178.269531 C 100.398438 177.359375 99.214844 174.703125 100.125 172.339844 L 126.96875 102.558594 C 127.863281 100.203125 130.492188 99.035156 132.886719 99.929688 C 135.238281 100.839844 136.421875 103.496094 135.511719 105.863281 L 108.667969 175.644531 C 107.976562 177.460938 106.230469 178.574219 104.398438 178.574219 " fill-opacity="1" fill-rule="nonzero"/><path fill="#ffffff" d="M 158.070312 178.574219 C 156.238281 178.574219 154.492188 177.460938 153.800781 175.644531 L 126.96875 105.863281 C 126.058594 103.496094 127.242188 100.839844 129.597656 99.929688 C 131.976562 99.035156 134.605469 100.203125 135.511719 102.558594 L 162.34375 172.339844 C 163.253906 174.703125 162.070312 177.359375 159.714844 178.269531 C 159.167969 178.472656 158.621094 178.574219 158.070312 178.574219 " fill-opacity="1" fill-rule="nonzero"/><path fill="#ffffff" d="M 147.824219 151.886719 L 114.660156 151.886719 C 112.132812 151.886719 110.082031 149.835938 110.082031 147.3125 C 110.082031 144.773438 112.132812 142.738281 114.660156 142.738281 L 147.824219 142.738281 C 150.351562 142.738281 152.386719 144.773438 152.386719 147.3125 C 152.386719 149.835938 150.351562 151.886719 147.824219 151.886719 " fill-opacity="1" fill-rule="nonzero"/><path fill="#fbc117" d="M 43.40625 226.429688 L 207.183594 226.429688 L 207.226562 208.535156 L 43.433594 208.535156 L 43.40625 226.429688 " fill-opacity="1" fill-rule="nonzero"/><g clip-path="url(#06dc0bbf82)"><path fill="#333333" d="M 96.34375 97.625 C 84.96875 104.375 90.394531 155.417969 93.402344 171.769531 C 94.804688 179.394531 103.390625 182.46875 117.941406 183.335938 C 127.304688 183.894531 178.695312 187.496094 195.523438 179.773438 C 199.660156 177.875 202.582031 173.289062 203.355469 170.042969 C 208.40625 148.800781 206.125 133.433594 205.4375 109.722656 C 205.199219 101.613281 199.316406 94.867188 179.527344 94.34375 C 166.097656 93.988281 152.832031 92.894531 134.261719 92.609375 C 115.835938 92.328125 102.675781 93.867188 96.34375 97.625 Z M 96.34375 97.625 " fill-opacity="1" fill-rule="evenodd"/></g><path fill="#ffffff" d="M 115.59375 162.253906 C 113.808594 162.253906 112.359375 160.800781 112.359375 159.015625 L 112.359375 147.96875 C 112.488281 140.679688 117.101562 136.359375 124.695312 136.359375 L 148.390625 136.359375 C 158.25 136.359375 164.136719 130.808594 164.136719 121.511719 L 164.136719 110.464844 C 164.136719 108.675781 165.585938 107.226562 167.375 107.226562 C 169.160156 107.226562 170.609375 108.675781 170.609375 110.464844 L 170.609375 121.253906 C 170.609375 134.464844 161.890625 142.832031 148.390625 142.832031 L 124.695312 142.832031 C 119.609375 142.832031 118.875 145.457031 118.832031 148.027344 L 118.832031 159.015625 C 118.832031 160.800781 117.382812 162.253906 115.59375 162.253906 Z M 115.59375 162.253906 " fill-opacity="1" fill-rule="nonzero"/><g clip-path="url(#18fb441050)"><path fill="#ffffff" d="M 137.902344 187.066406 C 133.734375 187.066406 129.476562 186.738281 125.425781 186.078125 C 117.480469 184.734375 112.359375 178.632812 112.359375 170.539062 L 112.359375 147.96875 C 112.359375 146.179688 113.808594 144.730469 115.59375 144.730469 C 117.382812 144.730469 118.832031 146.179688 118.832031 147.96875 L 118.832031 170.535156 C 118.832031 175.457031 121.691406 178.875 126.488281 179.6875 C 133.984375 180.90625 142.21875 180.894531 149.054688 179.644531 C 153.097656 178.953125 155.632812 177.929688 156.832031 176.511719 C 157.804688 175.359375 158.21875 173.574219 158.21875 170.53125 L 158.21875 160.085938 L 140.402344 160.085938 C 138.613281 160.085938 137.164062 158.636719 137.164062 156.847656 C 137.164062 155.0625 138.613281 153.613281 140.402344 153.613281 L 161.457031 153.613281 C 163.242188 153.613281 164.695312 155.0625 164.695312 156.847656 L 164.695312 170.53125 C 164.695312 173.660156 164.363281 177.632812 161.769531 180.691406 C 159.515625 183.351562 155.832031 185.046875 150.179688 186.015625 C 146.382812 186.71875 142.1875 187.066406 137.902344 187.066406 Z M 137.902344 187.066406 " fill-opacity="1" fill-rule="nonzero"/></g><path fill="#ffffff" d="M 170.351562 160.09375 L 161.460938 160.09375 C 159.675781 160.09375 158.226562 158.644531 158.226562 156.859375 C 158.226562 155.070312 159.675781 153.621094 161.460938 153.621094 L 170.351562 153.621094 C 176.59375 153.621094 179.558594 151.410156 180.929688 145.742188 C 183.015625 137.027344 183.015625 131.964844 180.925781 123.164062 C 179.035156 115.3125 176.207031 113.699219 172.554688 113.699219 L 170.609375 113.699219 L 170.609375 121.253906 C 170.609375 123.039062 169.160156 124.621094 167.375 124.621094 C 165.585938 124.621094 164.136719 123.292969 164.136719 121.507812 L 164.136719 110.464844 C 164.136719 108.675781 165.585938 107.226562 167.375 107.226562 L 172.554688 107.226562 C 182.585938 107.226562 185.730469 115.460938 187.222656 121.660156 C 189.53125 131.394531 189.53125 137.609375 187.222656 147.253906 C 185.164062 155.773438 179.488281 160.09375 170.351562 160.09375 Z M 170.351562 160.09375 " fill-opacity="1" fill-rule="nonzero"/><path fill="#ffffff" d="M 145.800781 177.355469 C 141.636719 177.355469 138.246094 173.964844 138.246094 169.796875 C 138.246094 165.636719 141.636719 162.253906 145.800781 162.253906 C 149.964844 162.253906 153.351562 165.636719 153.351562 169.796875 C 153.308594 173.980469 149.921875 177.355469 145.800781 177.355469 Z M 145.800781 168.726562 C 145.203125 168.726562 144.722656 169.203125 144.722656 169.796875 C 144.722656 170.96875 146.867188 170.988281 146.878906 169.765625 C 146.878906 169.203125 146.390625 168.726562 145.800781 168.726562 Z M 145.800781 168.726562 " fill-opacity="1" fill-rule="nonzero"/><path fill="#ffffff" d="M 106.972656 163.332031 C 105.183594 163.332031 103.734375 161.882812 103.734375 160.09375 L 103.734375 149.304688 C 103.734375 136.09375 112.457031 127.726562 125.957031 127.726562 L 149.648438 127.726562 C 154.738281 127.726562 155.472656 125.101562 155.515625 122.535156 L 155.515625 111.542969 C 155.515625 109.757812 156.964844 108.304688 158.75 108.304688 C 160.539062 108.304688 161.988281 109.757812 161.988281 111.542969 L 161.988281 122.59375 C 161.859375 129.886719 157.246094 134.199219 149.648438 134.199219 L 125.957031 134.199219 C 116.09375 134.199219 110.207031 139.75 110.207031 149.046875 L 110.207031 160.09375 C 110.207031 161.882812 108.757812 163.332031 106.972656 163.332031 Z M 106.972656 163.332031 " fill-opacity="1" fill-rule="nonzero"/><path fill="#ffffff" d="M 158.75 125.832031 C 156.964844 125.832031 155.515625 124.382812 155.515625 122.59375 L 155.515625 100.019531 C 155.515625 95.097656 152.652344 91.679688 147.859375 90.867188 C 140.363281 89.648438 132.128906 89.660156 125.292969 90.910156 C 121.246094 91.601562 118.714844 92.625 117.511719 94.039062 C 116.535156 95.191406 116.121094 96.976562 116.121094 100.019531 L 116.121094 110.464844 L 133.941406 110.464844 C 135.726562 110.464844 137.175781 111.914062 137.175781 113.699219 C 137.175781 115.488281 135.726562 116.9375 133.941406 116.9375 L 112.882812 116.9375 C 111.097656 116.9375 109.648438 115.488281 109.648438 113.699219 L 109.648438 100.019531 C 109.648438 96.890625 109.980469 92.917969 112.574219 89.855469 C 114.828125 87.199219 118.507812 85.503906 124.160156 84.535156 C 131.671875 83.171875 140.703125 83.144531 148.921875 84.484375 C 156.871094 85.832031 161.992188 91.929688 161.992188 100.023438 L 161.992188 122.59375 C 161.988281 124.382812 160.542969 125.832031 158.75 125.832031 Z M 158.75 125.832031 " fill-opacity="1" fill-rule="nonzero"/><path fill="#ffffff" d="M 106.972656 163.332031 L 101.792969 163.332031 C 91.757812 163.332031 88.617188 155.097656 87.125 148.898438 C 84.816406 139.164062 84.816406 132.949219 87.125 123.304688 C 89.183594 114.785156 94.859375 110.464844 103.992188 110.464844 L 112.882812 110.464844 C 114.671875 110.464844 116.121094 111.914062 116.121094 113.699219 C 116.121094 115.488281 114.671875 116.9375 112.882812 116.9375 L 103.992188 116.9375 C 97.753906 116.9375 94.789062 119.148438 93.417969 124.816406 C 91.332031 133.53125 91.332031 138.59375 93.421875 147.394531 C 95.3125 155.246094 98.136719 156.859375 101.792969 156.859375 L 103.734375 156.859375 L 103.734375 149.304688 C 103.734375 147.519531 105.183594 145.9375 106.972656 145.9375 C 108.757812 145.9375 110.207031 147.265625 110.207031 149.050781 L 110.207031 160.097656 C 110.207031 161.882812 108.757812 163.332031 106.972656 163.332031 Z M 106.972656 163.332031 " fill-opacity="1" fill-rule="nonzero"/><path fill="#ffffff" d="M 128.546875 108.304688 C 124.382812 108.304688 120.992188 104.921875 120.992188 100.761719 C 121.03125 96.578125 124.421875 93.203125 128.546875 93.203125 C 132.710938 93.203125 136.097656 96.59375 136.097656 100.761719 C 136.097656 104.921875 132.710938 108.304688 128.546875 108.304688 Z M 128.546875 99.675781 C 127.945312 99.675781 127.472656 100.167969 127.46875 100.792969 C 127.46875 101.914062 129.625 101.945312 129.625 100.761719 C 129.625 100.183594 129.125 99.675781 128.546875 99.675781 Z M 128.546875 99.675781 " fill-opacity="1" fill-rule="nonzero"/></svg>